# xmcd CD database file
# Copyright (C) 1993-1998 Ti Kan
#
# Track frame offsets:
#  175
#  15650
#  29722
#  45315
#  59060
#  74210
#  86775
#  101815
#  115862
#  130905
#  144835
#  159917
#  175912
#  190360
#
# Disc length: 2730 seconds
#
# Revision: 2
# Processed by: cddbd v1.4b41PL1 Copyright (c) Steve Scherf et al.
# Submitted via: KiC 2.1 - (C) 1996-1998 Alwin Hoogerdijk
#
DISCID=cb0aa80e
DTITLE=Jimmie Rodgers - First Sessions 1927-1928
DYEAR=1900
DGENRE=
TTITLE0=Blue Yodel
TTITLE1=The Soldier's Sweetheart
TTITLE2=Ben Dewberry's Final Run
TTITLE3=Sleep, Baby, Sleep
TTITLE4=Mother Was a Lady
TTITLE5=Dear Old Sunny South by the Sea
TTITLE6=Away Out on the Mountain
TTITLE7=Treasures Untold
TTITLE8=Blue Yodel No. 11
TTITLE9=The Sailor's Plea
TTITLE10=In the Jailhouse Now
TTITLE11=Memphis Yodel
TTITLE12=The Breakman's Blues
TTITLE13=Blue Yodel No. 3
EXTD=
EXTT0=
EXTT1=
EXTT2=
EXTT3=
EXTT4=
EXTT5=
EXTT6=
EXTT7=
EXTT8=
EXTT9=
EXTT10=
EXTT11=
EXTT12=
EXTT13=
PLAYORDER=
